<svg width="120" height="120" xmlns="http://www.w3.org/2000/svg">
  <defs>
    <linearGradient id="faceBg3" x1="0%" y1="0%" x2="100%" y2="100%">
      <stop offset="0%" style="stop-color:#4a90e2;stop-opacity:0.8" />
      <stop offset="100%" style="stop-color:#2d5016;stop-opacity:0.8" />
    </linearGradient>
  </defs>
  
  <!-- Background circle -->
  <circle cx="60" cy="60" r="60" fill="url(#faceBg3)"/>
  
  <!-- Face -->
  <circle cx="60" cy="55" r="35" fill="#ff6b35"/>
  
  <!-- Eyes -->
  <circle cx="50" cy="45" r="3" fill="#1a1a1a"/>
  <circle cx="70" cy="45" r="3" fill="#1a1a1a"/>
  <circle cx="51" cy="44" r="1" fill="white"/>
  <circle cx="71" cy="44" r="1" fill="white"/>
  
  <!-- Nose -->
  <path d="M60 50 L58 55 L62 55 Z" fill="#e55529" opacity="0.6"/>
  
  <!-- Mouth -->
  <path d="M52 62 Q60 68 68 62" stroke="#1a1a1a" stroke-width="2" fill="none" stroke-linecap="round"/>
  
  <!-- Hair (short) -->
  <path d="M35 35 Q45 25 55 30 Q65 20 75 30 Q85 25 95 35 Q90 40 80 38 Q70 35 60 38 Q50 35 40 38 Q30 40 35 35 Z" fill="#8b4513"/>
  
  <!-- Scout uniform -->
  <path d="M30 85 Q45 90 60 85 Q75 90 90 85 L90 120 L30 120 Z" fill="#2d5016"/>
  <rect x="55" y="90" width="10" height="8" fill="#ffaa00" rx="1"/>
  <rect x="50" y="95" width="5" height="5" fill="#ff0000" rx="1"/>
  <rect x="65" y="95" width="5" height="5" fill="#4a90e2" rx="1"/>
</svg>