<svg width="120" height="120" xmlns="http://www.w3.org/2000/svg">
  <defs>
    <linearGradient id="faceBg" x1="0%" y1="0%" x2="100%" y2="100%">
      <stop offset="0%" style="stop-color:#ff6b35;stop-opacity:0.8" />
      <stop offset="100%" style="stop-color:#4a90e2;stop-opacity:0.8" />
    </linearGradient>
  </defs>
  
  <!-- Background circle -->
  <circle cx="60" cy="60" r="60" fill="url(#faceBg)"/>
  
  <!-- Face -->
  <circle cx="60" cy="55" r="35" fill="#ff6b35"/>
  
  <!-- Eyes -->
  <circle cx="50" cy="45" r="3" fill="#1a1a1a"/>
  <circle cx="70" cy="45" r="3" fill="#1a1a1a"/>
  <circle cx="51" cy="44" r="1" fill="white"/>
  <circle cx="71" cy="44" r="1" fill="white"/>
  
  <!-- Nose -->
  <path d="M60 50 L58 55 L62 55 Z" fill="#e55529" opacity="0.6"/>
  
  <!-- Mouth -->
  <path d="M52 62 Q60 68 68 62" stroke="#1a1a1a" stroke-width="2" fill="none" stroke-linecap="round"/>
  
  <!-- Hair -->
  <path d="M30 35 Q40 25 50 30 Q60 20 70 30 Q80 25 90 35 Q85 45 75 40 Q65 35 55 40 Q45 35 35 40 Q25 45 30 35 Z" fill="#8b4513"/>
  
  <!-- Scout uniform collar -->
  <path d="M30 85 Q45 90 60 85 Q75 90 90 85 L90 120 L30 120 Z" fill="#2d5016"/>
  <rect x="55" y="90" width="10" height="8" fill="#ffaa00" rx="1"/>
</svg>