<svg width="120" height="120" xmlns="http://www.w3.org/2000/svg">
  <defs>
    <linearGradient id="faceBg2" x1="0%" y1="0%" x2="100%" y2="100%">
      <stop offset="0%" style="stop-color:#2d5016;stop-opacity:0.8" />
      <stop offset="100%" style="stop-color:#ff6b35;stop-opacity:0.8" />
    </linearGradient>
  </defs>
  
  <!-- Background circle -->
  <circle cx="60" cy="60" r="60" fill="url(#faceBg2)"/>
  
  <!-- Face -->
  <circle cx="60" cy="55" r="35" fill="#ff6b35"/>
  
  <!-- Eyes -->
  <circle cx="50" cy="45" r="3" fill="#1a1a1a"/>
  <circle cx="70" cy="45" r="3" fill="#1a1a1a"/>
  <circle cx="51" cy="44" r="1" fill="white"/>
  <circle cx="71" cy="44" r="1" fill="white"/>
  
  <!-- Nose -->
  <path d="M60 50 L58 55 L62 55 Z" fill="#e55529" opacity="0.6"/>
  
  <!-- Mouth -->
  <path d="M52 62 Q60 68 68 62" stroke="#1a1a1a" stroke-width="2" fill="none" stroke-linecap="round"/>
  
  <!-- Hair (longer) -->
  <path d="M25 40 Q35 25 45 30 Q55 20 65 30 Q75 20 85 30 Q95 25 105 40 Q100 50 90 45 Q80 40 70 45 Q60 40 50 45 Q40 40 30 45 Q20 50 25 40 Z" fill="#6b3410"/>
  
  <!-- Casual clothing -->
  <path d="M30 85 Q45 90 60 85 Q75 90 90 85 L90 120 L30 120 Z" fill="#4a90e2"/>
</svg>